<?xml version="1.0" standalone="no"?>
<!DOCTYPE svg PUBLIC "-//W3C//DTD SVG 20010904//EN"
 "http://www.w3.org/TR/2001/REC-SVG-20010904/DTD/svg10.dtd">
<svg version="1.0" xmlns="http://www.w3.org/2000/svg"
 width="32.000000pt" height="15.000000pt" viewBox="0 0 32.000000 15.000000"
 preserveAspectRatio="xMidYMid meet">

<g transform="translate(0.000000,15.000000) scale(0.100000,-0.100000)"
fill="#000000" stroke="none">
<path d="M51 110 c-23 -17 -39 -35 -36 -40 13 -21 96 -62 113 -55 15 6 12 11
-17 35 l-33 28 31 16 c17 9 31 23 31 31 0 25 -44 17 -89 -15z"/>
<path d="M187 133 c-4 -3 -7 -10 -7 -14 0 -11 94 -59 115 -59 32 0 13 31 -35
55 -52 26 -63 29 -73 18z"/>
</g>
</svg>
